<?xml version="1.0" standalone="no"?><!DOCTYPE svg PUBLIC "-//W3C//DTD SVG 1.1//EN" "http://www.w3.org/Graphics/SVG/1.1/DTD/svg11.dtd"><svg class="icon" width="200px" height="200.00px" viewBox="0 0 1024 1024" version="1.1" xmlns="http://www.w3.org/2000/svg"><path d="M757.76 786.432c-10.24 0-18.432-2.048-26.624-8.192l-215.04-155.648c-12.288-8.192-14.336-24.576-6.144-34.816 8.192-12.288 24.576-14.336 34.816-6.144l208.896 149.504 73.728-534.528-626.688 133.12L423.936 491.52c12.288 8.192 14.336 24.576 6.144 34.816-8.192 12.288-24.576 14.336-34.816 6.144L161.792 364.544c-14.336-10.24-22.528-28.672-18.432-47.104 4.096-18.432 16.384-30.72 34.816-34.816L825.344 143.36c14.336-4.096 30.72 2.048 40.96 12.288s16.384 24.576 14.336 40.96l-75.776 550.912c-2.048 16.384-12.288 28.672-26.624 36.864-8.192 0-14.336 2.048-20.48 2.048z" fill="#231815" /><path d="M450.56 880.64c-14.336 0-26.624-12.288-26.624-26.624V595.968c0-18.432 8.192-34.816 20.48-47.104l290.816-286.72c10.24-10.24 26.624-10.24 36.864 0s10.24 26.624 0 36.864l-290.816 286.72c-2.048 2.048-4.096 6.144-4.096 10.24v258.048c0 14.336-12.288 26.624-26.624 26.624z" fill="#4C7FFE" /></svg>
